<svg width="48" height="48" viewBox="0 0 48 48" fill="none" xmlns="http://www.w3.org/2000/svg">
<mask id="path-1-inside-1_9_6" fill="white">
<path d="M1.75519 33.0093C3.85195 38.1864 7.68878 42.47 12.6046 45.1221C17.5204 47.7742 23.2072 48.6286 28.6853 47.5382C34.1634 46.4478 39.0896 43.4808 42.6152 39.1485C46.1407 34.8161 48.0447 29.3898 47.9992 23.8044C47.9537 18.219 45.9614 12.8244 42.3658 8.55013C38.7701 4.27583 33.7962 1.38953 28.301 0.38854C22.8059 -0.612449 17.1337 0.334571 12.2618 3.06642C7.38989 5.79827 3.6234 10.1439 1.6113 15.3544L4.05267 16.2972C5.84536 11.6548 9.20114 7.78308 13.5418 5.34912C17.8824 2.91516 22.9361 2.07141 27.832 2.96324C32.728 3.85508 37.1595 6.42665 40.3631 10.2349C43.5667 14.0431 45.3417 18.8494 45.3822 23.8257C45.4228 28.802 43.7264 33.6367 40.5853 37.4966C37.4442 41.3565 33.0551 44 28.1744 44.9715C23.2937 45.943 18.2269 45.1818 13.8472 42.8189C9.46743 40.456 6.04899 36.6395 4.18087 32.0269L1.75519 33.0093Z"/>
</mask>
<path d="M1.75519 33.0093C3.85195 38.1864 7.68878 42.47 12.6046 45.1221C17.5204 47.7742 23.2072 48.6286 28.6853 47.5382C34.1634 46.4478 39.0896 43.4808 42.6152 39.1485C46.1407 34.8161 48.0447 29.3898 47.9992 23.8044C47.9537 18.219 45.9614 12.8244 42.3658 8.55013C38.7701 4.27583 33.7962 1.38953 28.301 0.38854C22.8059 -0.612449 17.1337 0.334571 12.2618 3.06642C7.38989 5.79827 3.6234 10.1439 1.6113 15.3544L4.05267 16.2972C5.84536 11.6548 9.20114 7.78308 13.5418 5.34912C17.8824 2.91516 22.9361 2.07141 27.832 2.96324C32.728 3.85508 37.1595 6.42665 40.3631 10.2349C43.5667 14.0431 45.3417 18.8494 45.3822 23.8257C45.4228 28.802 43.7264 33.6367 40.5853 37.4966C37.4442 41.3565 33.0551 44 28.1744 44.9715C23.2937 45.943 18.2269 45.1818 13.8472 42.8189C9.46743 40.456 6.04899 36.6395 4.18087 32.0269L1.75519 33.0093Z" stroke="black" stroke-width="6" mask="url(#path-1-inside-1_9_6)"/>
<path d="M13.9636 24H34.9091M34.9091 24L26.6182 15.7091M34.9091 24L26.6182 32.2909" stroke="black" stroke-width="3" stroke-linejoin="round"/>
</svg>
