<svg width="342" height="98" viewBox="0 0 342 98" fill="none" xmlns="http://www.w3.org/2000/svg">
<path d="M42.8807 60.65C42.8807 50.78 34.3407 48.19 26.5707 46.37V34.47C30.0707 34.89 33.7107 36.08 37.2807 38.11L40.7807 29.5C36.9307 27.05 31.8207 25.65 26.5707 25.23V17.6H19.5707V25.37C8.51066 26.63 3.12066 33 3.12066 40.42C3.12066 50.43 11.8007 53.02 19.5707 54.91V66.6C14.5307 66.11 9.49066 64.22 5.99066 61.63L2.14066 70.17C5.99066 73.18 12.6407 75.35 19.5707 75.77V83.4H26.5707V75.56C37.5607 74.23 42.8807 67.93 42.8807 60.65ZM14.3907 39.86C14.3907 37.55 15.8607 35.52 19.5707 34.68V44.62C16.4907 43.64 14.3907 42.31 14.3907 39.86ZM26.5707 66.32V56.66C29.5807 57.71 31.6107 59.04 31.6107 61.49C31.6107 63.73 30.0707 65.55 26.5707 66.32Z" fill="url(#paint0_linear_42_802)"/>
<path d="M65.08 22V41.68H76.6V32.56H95.16L75.08 78H89.16L109.96 30.4V22H65.08ZM133.601 43.04H129.041L129.921 32.4H153.281V22H119.121L116.241 53.52H130.561C140.721 53.52 143.601 56.4 143.601 60.8C143.601 65.36 139.601 68.08 133.121 68.08C127.281 68.08 121.441 66.24 117.201 63.04L112.081 72.96C117.521 76.8 125.681 78.96 133.441 78.96C149.441 78.96 156.721 70.32 156.721 60.4C156.721 50.48 150.161 43.04 133.601 43.04ZM169.419 63.12C165.019 63.12 161.659 66.16 161.659 70.8C161.659 74.08 163.339 76.56 165.979 77.6L162.459 90.32H170.379L174.939 78.8C176.779 74.4 177.099 72.88 177.099 70.8C177.099 66.24 173.899 63.12 169.419 63.12ZM205.901 78.96C219.741 78.96 229.901 68.48 229.901 50C229.901 31.52 219.741 21.04 205.901 21.04C192.141 21.04 181.901 31.52 181.901 50C181.901 68.48 192.141 78.96 205.901 78.96ZM205.901 68C199.501 68 195.021 62.72 195.021 50C195.021 37.28 199.501 32 205.901 32C212.381 32 216.861 37.28 216.861 50C216.861 62.72 212.381 68 205.901 68ZM260.198 78.96C274.038 78.96 284.198 68.48 284.198 50C284.198 31.52 274.038 21.04 260.198 21.04C246.438 21.04 236.198 31.52 236.198 50C236.198 68.48 246.438 78.96 260.198 78.96ZM260.198 68C253.798 68 249.318 62.72 249.318 50C249.318 37.28 253.798 32 260.198 32C266.678 32 271.158 37.28 271.158 50C271.158 62.72 266.678 68 260.198 68ZM314.495 78.96C328.335 78.96 338.495 68.48 338.495 50C338.495 31.52 328.335 21.04 314.495 21.04C300.735 21.04 290.495 31.52 290.495 50C290.495 68.48 300.735 78.96 314.495 78.96ZM314.495 68C308.095 68 303.615 62.72 303.615 50C303.615 37.28 308.095 32 314.495 32C320.975 32 325.455 37.28 325.455 50C325.455 62.72 320.975 68 314.495 68Z" fill="url(#paint1_linear_42_802)"/>
<defs>
<linearGradient id="paint0_linear_42_802" x1="22.5" y1="30.5598" x2="22.5" y2="73.5217" gradientUnits="userSpaceOnUse">
<stop stop-color="#FADF78"/>
<stop offset="1" stop-color="#F7E9BA"/>
</linearGradient>
<linearGradient id="paint1_linear_42_802" x1="202.5" y1="27.163" x2="202.5" y2="76.6957" gradientUnits="userSpaceOnUse">
<stop stop-color="#FADF78"/>
<stop offset="1" stop-color="#F7E9BA"/>
</linearGradient>
</defs>
</svg>
