<svg width="17" height="17" viewBox="0 0 17 17" fill="none" xmlns="http://www.w3.org/2000/svg">
<g clip-path="url(#clip0_47_478)">
<path d="M16.7582 13.5225L10.2654 1.54551C10.0935 1.2292 9.8396 0.965162 9.53047 0.78119C9.22135 0.597219 8.86842 0.500122 8.50884 0.500122C8.14926 0.500122 7.79633 0.597219 7.48721 0.78119C7.17808 0.965162 6.92421 1.2292 6.75231 1.54551L0.252828 13.5225C0.0827109 13.8283 -0.0044023 14.1734 0.000171238 14.5235C0.00474477 14.8735 0.100845 15.2162 0.278894 15.5175C0.456942 15.8187 0.710719 16.068 1.01493 16.2404C1.31914 16.4128 1.66316 16.5023 2.01269 16.5001H14.9983C15.345 16.5004 15.6858 16.4105 15.9873 16.2391C16.2888 16.0677 16.5406 15.8208 16.7181 15.5225C16.8955 15.2243 16.9926 14.885 16.9996 14.5379C17.0066 14.1907 16.9234 13.8478 16.7582 13.5425V13.5225ZM7.51225 4.97705C7.51225 4.71145 7.6176 4.45674 7.80512 4.26894C7.99264 4.08113 8.24698 3.97563 8.51217 3.97563C8.77737 3.97563 9.0317 4.08113 9.21922 4.26894C9.40675 4.45674 9.51209 4.71145 9.51209 4.97705V9.57691C9.51209 9.84251 9.40675 10.0972 9.21922 10.285C9.0317 10.4728 8.77737 10.5783 8.51217 10.5783C8.24698 10.5783 7.99264 10.4728 7.80512 10.285C7.6176 10.0972 7.51225 9.84251 7.51225 9.57691V4.97705ZM8.53884 13.9965C8.31207 13.9965 8.09039 13.9292 7.90183 13.803C7.71328 13.6768 7.56632 13.4975 7.47954 13.2877C7.39276 13.0778 7.37005 12.847 7.41429 12.6242C7.45853 12.4015 7.56774 12.1968 7.72809 12.0363C7.88844 11.8757 8.09274 11.7663 8.31515 11.722C8.53757 11.6777 8.7681 11.7004 8.97761 11.7873C9.18712 11.8742 9.36619 12.0214 9.49218 12.2103C9.61817 12.3991 9.68541 12.6211 9.68541 12.8482C9.68541 13.1528 9.56461 13.4448 9.34959 13.6602C9.13456 13.8755 8.84293 13.9965 8.53884 13.9965Z" fill="white"/>
</g>
<defs>
<clipPath id="clip0_47_478">
<rect width="17" height="17" fill="white"/>
</clipPath>
</defs>
</svg>
